<mxfile host="app.diagrams.net" modified="2023-09-10T09:40:16.774Z" agent="Mozilla/5.0 (Macintosh; Intel Mac OS X 10_15_7) AppleWebKit/537.36 (KHTML, like Gecko) Chrome/116.0.0.0 Safari/537.36" etag="SAb_r-f5ZoBXXU1jE7-u" version="21.5.0" type="device">
  <diagram name="Page-1" id="C0Okk19p1GsMNyZMMYpe">
    <mxGraphModel dx="1195" dy="643" grid="1" gridSize="10" guides="1" tooltips="1" connect="1" arrows="1" fold="1" page="1" pageScale="1" pageWidth="850" pageHeight="1100" math="0" shadow="0">
      <root>
        <mxCell id="0" />
        <mxCell id="1" parent="0" />
        <mxCell id="yyqq4TZEhLMmtB-CYNYD-311" style="edgeStyle=orthogonalEdgeStyle;rounded=1;orthogonalLoop=1;jettySize=auto;html=1;entryX=0;entryY=0.5;entryDx=0;entryDy=0;exitX=0;exitY=0.5;exitDx=0;exitDy=0;strokeColor=#0058FF;" edge="1" parent="1" source="yyqq4TZEhLMmtB-CYNYD-19" target="yyqq4TZEhLMmtB-CYNYD-114">
          <mxGeometry relative="1" as="geometry">
            <Array as="points">
              <mxPoint x="280" y="245" />
              <mxPoint x="280" y="315" />
            </Array>
          </mxGeometry>
        </mxCell>
        <mxCell id="yyqq4TZEhLMmtB-CYNYD-19" value="Ext" style="whiteSpace=wrap;html=1;aspect=fixed;rotation=15;fontSize=17;fontFamily=Verdana;fontStyle=1;fillColor=#0058ff;strokeColor=#000000;fontColor=#ffffff;rounded=1;" vertex="1" parent="1">
          <mxGeometry x="290.5" y="230" width="40" height="40" as="geometry" />
        </mxCell>
        <mxCell id="yyqq4TZEhLMmtB-CYNYD-332" style="edgeStyle=orthogonalEdgeStyle;rounded=1;orthogonalLoop=1;jettySize=auto;html=1;entryX=1;entryY=0.5;entryDx=0;entryDy=0;exitX=1;exitY=0.5;exitDx=0;exitDy=0;strokeColor=#22851e;" edge="1" parent="1" source="yyqq4TZEhLMmtB-CYNYD-40" target="yyqq4TZEhLMmtB-CYNYD-78">
          <mxGeometry relative="1" as="geometry">
            <Array as="points">
              <mxPoint x="538" y="261" />
              <mxPoint x="560" y="261" />
              <mxPoint x="560" y="425" />
            </Array>
          </mxGeometry>
        </mxCell>
        <mxCell id="yyqq4TZEhLMmtB-CYNYD-40" value="Sym" style="whiteSpace=wrap;html=1;aspect=fixed;rotation=-15;fontSize=17;fontFamily=Verdana;fontStyle=1;fillColor=#22851e;strokeColor=#000000;fontColor=#ffffff;rounded=1;" vertex="1" parent="1">
          <mxGeometry x="498.5" y="230" width="40" height="40" as="geometry" />
        </mxCell>
        <mxCell id="yyqq4TZEhLMmtB-CYNYD-41" value="&lt;b&gt;Base&lt;/b&gt;" style="rounded=0;whiteSpace=wrap;html=1;fontFamily=Verdana;fontSize=17;fontColor=#AFB9C7;fillColor=#383E47;strokeColor=#000000;" vertex="1" parent="1">
          <mxGeometry x="308.5" y="190" width="210" height="30" as="geometry" />
        </mxCell>
        <mxCell id="yyqq4TZEhLMmtB-CYNYD-78" value="&lt;b&gt;Sym&lt;/b&gt;" style="rounded=0;whiteSpace=wrap;html=1;fontFamily=Verdana;fontSize=17;fillColor=#22851e;strokeColor=#000000;fontStyle=0;fontColor=#ffffff;" vertex="1" parent="1">
          <mxGeometry x="308.5" y="410" width="210" height="30" as="geometry" />
        </mxCell>
        <mxCell id="yyqq4TZEhLMmtB-CYNYD-114" value="Ext" style="rounded=0;whiteSpace=wrap;html=1;fontFamily=Verdana;fontSize=17;fontStyle=1;fillColor=#0058ff;strokeColor=#000000;fontColor=#ffffff;" vertex="1" parent="1">
          <mxGeometry x="308.5" y="300" width="210" height="30" as="geometry" />
        </mxCell>
        <mxCell id="yyqq4TZEhLMmtB-CYNYD-312" style="edgeStyle=orthogonalEdgeStyle;rounded=1;orthogonalLoop=1;jettySize=auto;html=1;entryX=1;entryY=0.5;entryDx=0;entryDy=0;exitX=1;exitY=0.5;exitDx=0;exitDy=0;strokeColor=#C100FF;" edge="1" parent="1" source="yyqq4TZEhLMmtB-CYNYD-287" target="yyqq4TZEhLMmtB-CYNYD-301">
          <mxGeometry relative="1" as="geometry">
            <Array as="points">
              <mxPoint x="550" y="355" />
              <mxPoint x="550" y="535" />
            </Array>
          </mxGeometry>
        </mxCell>
        <mxCell id="yyqq4TZEhLMmtB-CYNYD-287" value="Fnc" style="whiteSpace=wrap;html=1;aspect=fixed;rotation=-15;fontSize=17;fontFamily=Verdana;fontStyle=1;fillColor=#c100ff;strokeColor=#000000;fontColor=#ffffff;rounded=1;" vertex="1" parent="1">
          <mxGeometry x="502" y="340" width="40" height="40" as="geometry" />
        </mxCell>
        <mxCell id="yyqq4TZEhLMmtB-CYNYD-314" style="edgeStyle=orthogonalEdgeStyle;rounded=1;orthogonalLoop=1;jettySize=auto;html=1;entryX=0;entryY=0.5;entryDx=0;entryDy=0;exitX=0;exitY=0.5;exitDx=0;exitDy=0;strokeColor=#C100FF;" edge="1" parent="1" source="yyqq4TZEhLMmtB-CYNYD-294" target="yyqq4TZEhLMmtB-CYNYD-301">
          <mxGeometry relative="1" as="geometry">
            <Array as="points">
              <mxPoint x="280" y="465" />
              <mxPoint x="280" y="535" />
            </Array>
          </mxGeometry>
        </mxCell>
        <mxCell id="yyqq4TZEhLMmtB-CYNYD-315" style="edgeStyle=orthogonalEdgeStyle;rounded=1;orthogonalLoop=1;jettySize=auto;html=1;entryX=0;entryY=0.5;entryDx=0;entryDy=0;exitX=0;exitY=0.5;exitDx=0;exitDy=0;strokeColor=#ff0303;" edge="1" parent="1" source="yyqq4TZEhLMmtB-CYNYD-295" target="yyqq4TZEhLMmtB-CYNYD-306">
          <mxGeometry relative="1" as="geometry">
            <Array as="points">
              <mxPoint x="270" y="478" />
              <mxPoint x="270" y="645" />
            </Array>
          </mxGeometry>
        </mxCell>
        <mxCell id="yyqq4TZEhLMmtB-CYNYD-295" value="&lt;font color=&quot;#ffffff&quot; style=&quot;font-size: 17px;&quot;&gt;Num&lt;/font&gt;" style="whiteSpace=wrap;html=1;aspect=fixed;rotation=30;fontSize=17;fontFamily=Verdana;fontStyle=1;fontColor=#AFB9C7;fillColor=#ff0303;rounded=1;strokeColor=#000000;" vertex="1" parent="1">
          <mxGeometry x="338" y="468" width="40" height="40" as="geometry" />
        </mxCell>
        <mxCell id="yyqq4TZEhLMmtB-CYNYD-301" value="&lt;b&gt;Fnc&lt;/b&gt;" style="rounded=0;whiteSpace=wrap;html=1;fontFamily=Verdana;fontSize=17;fillColor=#c100ff;strokeColor=#000000;fontStyle=0;fontColor=#ffffff;" vertex="1" parent="1">
          <mxGeometry x="308.5" y="520" width="210" height="30" as="geometry" />
        </mxCell>
        <mxCell id="yyqq4TZEhLMmtB-CYNYD-306" value="&lt;b&gt;Num&lt;/b&gt;" style="rounded=0;whiteSpace=wrap;html=1;fontFamily=Verdana;fontSize=17;fillColor=#ff0303;strokeColor=#000000;fontStyle=0;fontColor=#ffffff;" vertex="1" parent="1">
          <mxGeometry x="308.5" y="630" width="210" height="30" as="geometry" />
        </mxCell>
        <mxCell id="yyqq4TZEhLMmtB-CYNYD-294" value="Fnc" style="whiteSpace=wrap;html=1;aspect=fixed;rotation=15;fontSize=17;fontFamily=Verdana;fontStyle=1;fillColor=#C100FF;strokeColor=#000000;fontColor=#ffffff;rounded=1;" vertex="1" parent="1">
          <mxGeometry x="290" y="450" width="40" height="40" as="geometry" />
        </mxCell>
        <mxCell id="yyqq4TZEhLMmtB-CYNYD-316" value="" style="whiteSpace=wrap;html=1;aspect=fixed;rotation=15;fontSize=17;fontFamily=Verdana;fontStyle=1;fontColor=#333333;fillColor=none;strokeColor=#000000;rounded=1;shadow=0;dashed=1;glass=0;sketch=0;" vertex="1" parent="1">
          <mxGeometry x="290" y="560" width="40" height="40" as="geometry" />
        </mxCell>
        <mxCell id="yyqq4TZEhLMmtB-CYNYD-317" value="" style="whiteSpace=wrap;html=1;aspect=fixed;rotation=30;fontSize=17;fontFamily=Verdana;fontStyle=1;fontColor=#333333;fillColor=none;strokeColor=#000000;rounded=1;shadow=0;dashed=1;glass=0;sketch=0;" vertex="1" parent="1">
          <mxGeometry x="334" y="358" width="40" height="40" as="geometry" />
        </mxCell>
        <mxCell id="yyqq4TZEhLMmtB-CYNYD-318" value="" style="whiteSpace=wrap;html=1;aspect=fixed;rotation=15;fontSize=17;fontFamily=Verdana;fontStyle=1;fontColor=#333333;fillColor=none;strokeColor=#000000;rounded=1;shadow=0;dashed=1;glass=0;sketch=0;" vertex="1" parent="1">
          <mxGeometry x="289" y="670" width="40" height="40" as="geometry" />
        </mxCell>
        <mxCell id="yyqq4TZEhLMmtB-CYNYD-319" value="" style="whiteSpace=wrap;html=1;aspect=fixed;rotation=15;fontSize=17;fontFamily=Verdana;fontStyle=1;fontColor=#333333;fillColor=none;strokeColor=#000000;rounded=1;shadow=0;dashed=1;glass=0;sketch=0;" vertex="1" parent="1">
          <mxGeometry x="285" y="340" width="40" height="40" as="geometry" />
        </mxCell>
        <mxCell id="yyqq4TZEhLMmtB-CYNYD-320" value="" style="whiteSpace=wrap;html=1;aspect=fixed;rotation=30;fontSize=17;fontFamily=Verdana;fontStyle=1;fontColor=#333333;fillColor=none;strokeColor=#000000;rounded=1;shadow=0;dashed=1;glass=0;sketch=0;" vertex="1" parent="1">
          <mxGeometry x="339" y="578" width="40" height="40" as="geometry" />
        </mxCell>
        <mxCell id="yyqq4TZEhLMmtB-CYNYD-321" value="" style="whiteSpace=wrap;html=1;aspect=fixed;rotation=30;fontSize=17;fontFamily=Verdana;fontStyle=1;fontColor=#333333;fillColor=none;strokeColor=#000000;rounded=1;shadow=0;dashed=1;glass=0;sketch=0;" vertex="1" parent="1">
          <mxGeometry x="338" y="688" width="40" height="40" as="geometry" />
        </mxCell>
        <mxCell id="yyqq4TZEhLMmtB-CYNYD-322" value="" style="whiteSpace=wrap;html=1;aspect=fixed;rotation=-15;fontSize=17;fontFamily=Verdana;fontStyle=1;fontColor=#333333;fillColor=none;strokeColor=#000000;rounded=1;shadow=0;dashed=1;glass=0;sketch=0;" vertex="1" parent="1">
          <mxGeometry x="498" y="670" width="40" height="40" as="geometry" />
        </mxCell>
        <mxCell id="yyqq4TZEhLMmtB-CYNYD-323" value="" style="whiteSpace=wrap;html=1;aspect=fixed;rotation=-15;fontSize=17;fontFamily=Verdana;fontStyle=1;fontColor=#333333;fillColor=none;strokeColor=#000000;rounded=1;shadow=0;dashed=1;glass=0;sketch=0;" vertex="1" parent="1">
          <mxGeometry x="499" y="560" width="40" height="40" as="geometry" />
        </mxCell>
        <mxCell id="yyqq4TZEhLMmtB-CYNYD-324" value="" style="whiteSpace=wrap;html=1;aspect=fixed;rotation=-15;fontSize=17;fontFamily=Verdana;fontStyle=1;fontColor=#333333;fillColor=none;strokeColor=#000000;rounded=1;shadow=0;dashed=1;glass=0;sketch=0;" vertex="1" parent="1">
          <mxGeometry x="499" y="450" width="40" height="40" as="geometry" />
        </mxCell>
        <mxCell id="yyqq4TZEhLMmtB-CYNYD-325" value="" style="whiteSpace=wrap;html=1;aspect=fixed;rotation=-30;fontSize=17;fontFamily=Verdana;fontStyle=1;fontColor=#333333;fillColor=none;strokeColor=#000000;rounded=1;shadow=0;dashed=1;glass=0;sketch=0;" vertex="1" parent="1">
          <mxGeometry x="449" y="688" width="40" height="40" as="geometry" />
        </mxCell>
        <mxCell id="yyqq4TZEhLMmtB-CYNYD-326" value="" style="whiteSpace=wrap;html=1;aspect=fixed;rotation=-30;fontSize=17;fontFamily=Verdana;fontStyle=1;fontColor=#333333;fillColor=none;strokeColor=#000000;rounded=1;shadow=0;dashed=1;glass=0;sketch=0;" vertex="1" parent="1">
          <mxGeometry x="450" y="578" width="40" height="40" as="geometry" />
        </mxCell>
        <mxCell id="yyqq4TZEhLMmtB-CYNYD-327" value="" style="whiteSpace=wrap;html=1;aspect=fixed;rotation=-30;fontSize=17;fontFamily=Verdana;fontStyle=1;fontColor=#333333;fillColor=none;strokeColor=#000000;rounded=1;shadow=0;dashed=1;glass=0;sketch=0;" vertex="1" parent="1">
          <mxGeometry x="450" y="468" width="40" height="40" as="geometry" />
        </mxCell>
        <mxCell id="yyqq4TZEhLMmtB-CYNYD-328" value="" style="whiteSpace=wrap;html=1;aspect=fixed;rotation=-30;fontSize=17;fontFamily=Verdana;fontStyle=1;fontColor=#333333;fillColor=none;strokeColor=#000000;rounded=1;shadow=0;dashed=1;glass=0;sketch=0;" vertex="1" parent="1">
          <mxGeometry x="454" y="358" width="40" height="40" as="geometry" />
        </mxCell>
        <mxCell id="yyqq4TZEhLMmtB-CYNYD-329" value="" style="whiteSpace=wrap;html=1;aspect=fixed;rotation=-30;fontSize=17;fontFamily=Verdana;fontStyle=1;fontColor=#333333;fillColor=none;strokeColor=#000000;rounded=1;shadow=0;dashed=1;glass=0;sketch=0;" vertex="1" parent="1">
          <mxGeometry x="449.5" y="248" width="40" height="40" as="geometry" />
        </mxCell>
        <mxCell id="yyqq4TZEhLMmtB-CYNYD-331" value="" style="whiteSpace=wrap;html=1;aspect=fixed;rotation=30;fontSize=17;fontFamily=Verdana;fontStyle=1;fontColor=#333333;fillColor=none;strokeColor=#000000;rounded=1;shadow=0;dashed=1;glass=0;sketch=0;" vertex="1" parent="1">
          <mxGeometry x="338.5" y="248" width="40" height="40" as="geometry" />
        </mxCell>
      </root>
    </mxGraphModel>
  </diagram>
</mxfile>
